# xmcd CD database file
#
# Track frame offsets:
#	187
#	28027
#	49630
#	72587
#	101682
#	126752
#	147270
#	172912
#	199280
#	222277
#	246697
#	270472
#	287475
#	311190
#
# Disc length: 4424 seconds
#
# Revision: 4
# Processed by: cddbd v1.5.2PL0 Copyright (c) Steve Scherf et al.
# Submitted via: CDex 1.51
#
DISCID=dd11460e
DTITLE=Bon Jovi - These Days
DYEAR=1995
DGENRE=Rock
TTITLE0=Hey God
TTITLE1=Something For The Pain
TTITLE2=This Ain't a Love Song
TTITLE3=These Days
TTITLE4=Lie To Me
TTITLE5=Damned
TTITLE6=My Guitar Lies Bleeding In My Arms
TTITLE7=(It's Hard) Letting You Go
TTITLE8=Hearts Breaking Even
TTITLE9=Something To Believe In
TTITLE10=If That's What It Takes
TTITLE11=Diamond Ring
TTITLE12=All I Want Is Everything
TTITLE13=Bitter Wine
EXTD=YEAR: 1995
EXTT0=
EXTT1=
EXTT2=
EXTT3=
EXTT4=
EXTT5=
EXTT6=
EXTT7=
EXTT8=
EXTT9=
EXTT10=
EXTT11=
EXTT12=
EXTT13=
PLAYORDER=
